<?xml version="1.0" ?><svg viewBox="0 0 64 64" xmlns="http://www.w3.org/2000/svg"><title/><g data-name="Layer 3" id="Layer_3"><path d="M26,35a1,1,0,0,0-1,1v3a1,1,0,0,0,2,0V36A1,1,0,0,0,26,35Z"/><path d="M38,40a1,1,0,0,0,1-1V36a1,1,0,0,0-2,0v3A1,1,0,0,0,38,40Z"/><path d="M58.53,50.9c.1-2-2-4.18-2-6.43,0-2.07,2-4.3,1.84-6.47s-2.51-4-2.88-6.07,1.22-4.7.59-6.71-3.36-3.29-4.3-5.14-.42-4.9-1.82-6.47-4.35-1.33-6.22-2.42-3-3.72-5.22-4.19c-1.61-.33-3.07.8-4.86,1.24a4.37,4.37,0,0,1-.63.11l-.2,0a8.77,8.77,0,0,1-2.75-.2C28.41,7.71,27,6.68,25.45,7c-2.22.47-3.44,3.18-5.21,4.19S15.42,12,14,13.61s-.84,4.54-1.81,6.47-3.69,3.06-4.32,5.14,1,4.59.6,6.71S5.78,35.9,5.6,38s1.87,4.4,1.85,6.47c0,2.25-2.07,4.43-2,6.43.12,2.37,2.41,4.37,2.6,6.21s-.42,3.46-.94,5.39H57c-.54-1.93-1.23-3.5-1-5.39S58.39,53.27,58.53,50.9ZM37.48,54.62c-.16.54-1.15,3-5.49,3.1-4.77.07-5.47-3.06-5.49-3.1v-.25l1-.07A1.64,1.64,0,0,0,29,52.67V50.79a15.66,15.66,0,0,0,6,0v1.88a1.64,1.64,0,0,0,1.53,1.63l.88.06ZM20.31,46.49h0a2.57,2.57,0,0,0-.88,1.37c-.18,1.22,1.76,2.76,1.63,4.11a1.62,1.62,0,0,1-.14.46,1.62,1.62,0,0,0,.14-.46c.13-1.35-1.81-2.89-1.64-4.11A2.6,2.6,0,0,1,20.31,46.49Zm0,6.84c.1-.12.2-.23.29-.35Zm.37-.45a3.93,3.93,0,0,0,.26-.41A3.93,3.93,0,0,1,20.66,52.88Zm-1.08,1.21-.26.3Zm.61-.66-.48.52Zm-1,1.15h0l0-.05Zm24.88-7.71.05.06Zm.34.5h0Zm-1.13,5.4s0,0,0,0S43.28,52.79,43.26,52.77ZM43,52.33a.64.64,0,0,0,0,.07A.64.64,0,0,1,43,52.33Zm-8.2-27a2.17,2.17,0,0,1,1,.61c.75.75-.06,3.07.79,4.36.64.95,3.1,1.05,3.74,2.36.5,1.07-1,3.06-.5,4.4.41,1.13,2.8,1.75,3.16,3.1.25.92-.81,2.18-1.12,3.34a2,2,0,0,0-.07.92,2.94,2.94,0,0,0,1.09,1.44,9.49,9.49,0,0,1-3,2.23,33.18,33.18,0,0,1-3.22,1.27,17.47,17.47,0,0,1-1.8.47,14.9,14.9,0,0,1-5.8,0,17.47,17.47,0,0,1-1.8-.47,33.18,33.18,0,0,1-3.22-1.27,9.52,9.52,0,0,1-3-2.23h0a3.1,3.1,0,0,0,1.1-1.43,2.08,2.08,0,0,0-.07-.92c-.35-1.16-1.38-2.42-1.14-3.34.37-1.35,2.77-2,3.16-3.1.47-1.34-1-3.33-.48-4.4.61-1.31,3.1-1.41,3.72-2.36.85-1.29,0-3.61.79-4.36a2.12,2.12,0,0,1,1-.61l1.77.12a4,4,0,0,0,2.07,0ZM19,57.12a5.54,5.54,0,0,1-.34-1.1,3.12,3.12,0,0,1,1.85-.75l5-.34c.26.85,1.56,3.88,6.44,3.79s6.17-3,6.42-3.79l5,.34a3.2,3.2,0,0,1,1.85.74A7.2,7.2,0,0,1,45,57.12a33.67,33.67,0,0,0-1.5,4.38H20.71A32.85,32.85,0,0,0,19,57.12Z"/></g></svg>